<?xml version="1.0" encoding="UTF-8"?><svg xmlns="http://www.w3.org/2000/svg" xmlns:xlink="http://www.w3.org/1999/xlink" fill-opacity="1" color-rendering="auto" color-interpolation="auto" text-rendering="auto" stroke="black" stroke-linecap="square" width="781" stroke-miterlimit="10" shape-rendering="auto" stroke-opacity="1" fill="black" stroke-dasharray="none" font-weight="normal" stroke-width="1" height="611" font-family="'Dialog'" font-style="normal" stroke-linejoin="miter" font-size="12px" stroke-dashoffset="0" image-rendering="auto">
  <!--Generated by ySVG 2.6-->
  <defs id="genericDefs"/>
  <g>
    <defs id="defs1">
      <linearGradient x1="5" gradientUnits="userSpaceOnUse" x2="138" y1="120.9184" y2="192.9184" id="linearGradient1" spreadMethod="reflect">
        <stop stop-opacity="1" stop-color="rgb(232,238,247)" offset="0%"/>
        <stop stop-opacity="1" stop-color="rgb(183,201,227)" offset="100%"/>
      </linearGradient>
      <linearGradient x1="209.2016" gradientUnits="userSpaceOnUse" x2="337.2016" y1="241.8696" y2="308.8696" id="linearGradient2" spreadMethod="reflect">
        <stop stop-opacity="1" stop-color="rgb(255,102,0)" offset="0%"/>
        <stop stop-opacity="1" stop-color="rgb(255,51,51)" offset="100%"/>
      </linearGradient>
      <linearGradient x1="7.5" gradientUnits="userSpaceOnUse" x2="135.5" y1="255.0966" y2="322.0966" id="linearGradient3" spreadMethod="reflect">
        <stop stop-opacity="1" stop-color="rgb(232,238,247)" offset="0%"/>
        <stop stop-opacity="1" stop-color="rgb(183,201,227)" offset="100%"/>
      </linearGradient>
      <linearGradient x1="12.5" gradientUnits="userSpaceOnUse" x2="130.5" y1="0" y2="46" id="linearGradient4" spreadMethod="reflect">
        <stop stop-opacity="1" stop-color="rgb(178,178,178)" offset="0%"/>
        <stop stop-opacity="1" stop-color="rgb(178,178,178)" offset="100%"/>
      </linearGradient>
      <linearGradient x1="12.5" gradientUnits="userSpaceOnUse" x2="130.5" y1="384.2747" y2="451.7747" id="linearGradient5" spreadMethod="reflect">
        <stop stop-opacity="1" stop-color="rgb(232,238,247)" offset="0%"/>
        <stop stop-opacity="1" stop-color="rgb(183,201,227)" offset="100%"/>
      </linearGradient>
      <linearGradient x1="415.9032" gradientUnits="userSpaceOnUse" x2="543.9032" y1="384.5247" y2="451.5247" id="linearGradient6" spreadMethod="reflect">
        <stop stop-opacity="1" stop-color="rgb(232,238,247)" offset="0%"/>
        <stop stop-opacity="1" stop-color="rgb(183,201,227)" offset="100%"/>
      </linearGradient>
      <linearGradient x1="214.2016" gradientUnits="userSpaceOnUse" x2="332.2016" y1="384.2747" y2="451.7747" id="linearGradient7" spreadMethod="reflect">
        <stop stop-opacity="1" stop-color="rgb(232,238,247)" offset="0%"/>
        <stop stop-opacity="1" stop-color="rgb(183,201,227)" offset="100%"/>
      </linearGradient>
      <linearGradient x1="627.6047" gradientUnits="userSpaceOnUse" x2="755.6047" y1="384.5247" y2="451.5247" id="linearGradient8" spreadMethod="reflect">
        <stop stop-opacity="1" stop-color="rgb(0,204,0)" offset="0%"/>
        <stop stop-opacity="1" stop-color="rgb(0,204,51)" offset="100%"/>
      </linearGradient>
      <linearGradient x1="12.5" gradientUnits="userSpaceOnUse" x2="140.5" y1="513.9529" y2="580.9529" id="linearGradient9" spreadMethod="reflect">
        <stop stop-opacity="1" stop-color="rgb(0,204,0)" offset="0%"/>
        <stop stop-opacity="1" stop-color="rgb(0,204,51)" offset="100%"/>
      </linearGradient>
      <clipPath clipPathUnits="userSpaceOnUse" id="clipPath1">
        <path d="M0 0 L781 0 L781 611 L0 611 L0 0 Z"/>
      </clipPath>
      <clipPath clipPathUnits="userSpaceOnUse" id="clipPath2">
        <path d="M-10 -15 L771 -15 L771 596 L-10 596 L-10 -15 Z"/>
      </clipPath>
    </defs>
    <g fill="white" text-rendering="geometricPrecision" shape-rendering="geometricPrecision" transform="translate(10,15)" stroke="white">
      <rect x="-10" width="781" height="611" y="-15" clip-path="url(#clipPath2)" stroke="none"/>
    </g>
    <g fill="url(#linearGradient1)" text-rendering="geometricPrecision" shape-rendering="geometricPrecision" transform="matrix(1,0,0,1,10,15)" stroke="url(#linearGradient1)">
      <path d="M71.5 120.9184 L138 156.9184 L71.5 192.9184 L5 156.9184 Z" stroke="none" clip-path="url(#clipPath2)"/>
    </g>
    <g text-rendering="geometricPrecision" stroke-miterlimit="1.45" shape-rendering="geometricPrecision" transform="matrix(1,0,0,1,10,15)" stroke-linecap="butt">
      <path fill="none" d="M71.5 120.9184 L138 156.9184 L71.5 192.9184 L5 156.9184 Z" clip-path="url(#clipPath2)"/>
      <text x="44.793" xml:space="preserve" y="154.3871" clip-path="url(#clipPath2)" font-family="sans-serif" stroke="none">Order No</text>
      <text x="54.4873" xml:space="preserve" y="168.5199" clip-path="url(#clipPath2)" font-family="sans-serif" stroke="none">Valid?</text>
    </g>
    <g fill="url(#linearGradient2)" text-rendering="geometricPrecision" shape-rendering="geometricPrecision" transform="matrix(1,0,0,1,10,15)" stroke="url(#linearGradient2)">
      <path d="M209.2016 241.8696 L337.2016 241.8696 L337.2016 308.8696 L209.2016 308.8696 Z" stroke="none" clip-path="url(#clipPath2)"/>
    </g>
    <g text-rendering="geometricPrecision" stroke-miterlimit="1.45" shape-rendering="geometricPrecision" transform="matrix(1,0,0,1,10,15)" stroke-linecap="butt">
      <path fill="none" d="M209.2016 241.8696 L337.2016 241.8696 L337.2016 308.8696 L209.2016 308.8696 Z" clip-path="url(#clipPath2)"/>
      <text x="253.9067" xml:space="preserve" y="279.9047" clip-path="url(#clipPath2)" font-family="sans-serif" stroke="none">ERROR</text>
    </g>
    <g fill="url(#linearGradient3)" text-rendering="geometricPrecision" shape-rendering="geometricPrecision" transform="matrix(1,0,0,1,10,15)" stroke="url(#linearGradient3)">
      <path d="M7.5 255.0966 L135.5 255.0966 L135.5 322.0966 L7.5 322.0966 Z" stroke="none" clip-path="url(#clipPath2)"/>
    </g>
    <g text-rendering="geometricPrecision" stroke-miterlimit="1.45" shape-rendering="geometricPrecision" transform="matrix(1,0,0,1,10,15)" stroke-linecap="butt">
      <path fill="none" d="M7.5 255.0966 L135.5 255.0966 L135.5 322.0966 L7.5 322.0966 Z" clip-path="url(#clipPath2)"/>
      <text x="22.5801" xml:space="preserve" y="286.0653" clip-path="url(#clipPath2)" font-family="sans-serif" stroke="none">Attempt to Fetch</text>
      <text x="54.8096" xml:space="preserve" y="300.1981" clip-path="url(#clipPath2)" font-family="sans-serif" stroke="none">Order</text>
    </g>
    <g fill="rgb(51,51,51)" text-rendering="geometricPrecision" shape-rendering="geometricPrecision" transform="matrix(1,0,0,1,10,15)" stroke="rgb(51,51,51)">
      <rect x="6.5" width="5" height="5" y="-6" clip-path="url(#clipPath2)" stroke="none"/>
      <rect x="6.5" width="5" height="5" y="21" clip-path="url(#clipPath2)" stroke="none"/>
      <rect x="6.5" width="5" height="5" y="48" clip-path="url(#clipPath2)" stroke="none"/>
      <rect x="69.5" width="5" height="5" y="48" clip-path="url(#clipPath2)" stroke="none"/>
      <rect x="69.5" width="5" height="5" y="-6" clip-path="url(#clipPath2)" stroke="none"/>
      <rect x="132.5" width="5" height="5" y="-6" clip-path="url(#clipPath2)" stroke="none"/>
      <rect x="132.5" width="5" height="5" y="21" clip-path="url(#clipPath2)" stroke="none"/>
      <rect x="132.5" width="5" height="5" y="48" clip-path="url(#clipPath2)" stroke="none"/>
      <ellipse clip-path="url(#clipPath2)" fill="url(#linearGradient4)" rx="59" cx="71.5" ry="23" cy="23" stroke="none"/>
    </g>
    <g text-rendering="geometricPrecision" stroke-miterlimit="1.45" shape-rendering="geometricPrecision" transform="matrix(1,0,0,1,10,15)" stroke-linecap="butt">
      <ellipse rx="59" fill="none" ry="23" clip-path="url(#clipPath2)" cx="71.5" cy="23"/>
      <text x="18.918" xml:space="preserve" y="27.5352" clip-path="url(#clipPath2)" font-family="sans-serif" stroke="none">Page/Route Loads</text>
    </g>
    <g fill="url(#linearGradient5)" text-rendering="geometricPrecision" shape-rendering="geometricPrecision" transform="matrix(1,0,0,1,10,15)" stroke="url(#linearGradient5)">
      <path d="M71.5 384.2747 L130.5 418.0247 L71.5 451.7747 L12.5 418.0247 Z" stroke="none" clip-path="url(#clipPath2)"/>
    </g>
    <g text-rendering="geometricPrecision" stroke-miterlimit="1.45" shape-rendering="geometricPrecision" transform="matrix(1,0,0,1,10,15)" stroke-linecap="butt">
      <path fill="none" d="M71.5 384.2747 L130.5 418.0247 L71.5 451.7747 L12.5 418.0247 Z" clip-path="url(#clipPath2)"/>
      <text x="46.4072" xml:space="preserve" y="422.5599" clip-path="url(#clipPath2)" font-family="sans-serif" stroke="none">Success?</text>
    </g>
    <g fill="url(#linearGradient6)" text-rendering="geometricPrecision" shape-rendering="geometricPrecision" transform="matrix(1,0,0,1,10,15)" stroke="url(#linearGradient6)">
      <path d="M415.9032 384.5247 L543.9032 384.5247 L543.9032 451.5247 L415.9032 451.5247 Z" stroke="none" clip-path="url(#clipPath2)"/>
    </g>
    <g text-rendering="geometricPrecision" stroke-miterlimit="1.45" shape-rendering="geometricPrecision" transform="matrix(1,0,0,1,10,15)" stroke-linecap="butt">
      <path fill="none" d="M415.9032 384.5247 L543.9032 384.5247 L543.9032 451.5247 L415.9032 451.5247 Z" clip-path="url(#clipPath2)"/>
      <text x="441.8377" xml:space="preserve" y="422.5599" clip-path="url(#clipPath2)" font-family="sans-serif" stroke="none">Log User Out</text>
    </g>
    <g fill="url(#linearGradient7)" text-rendering="geometricPrecision" shape-rendering="geometricPrecision" transform="matrix(1,0,0,1,10,15)" stroke="url(#linearGradient7)">
      <path d="M273.2016 384.2747 L332.2016 418.0247 L273.2016 451.7747 L214.2016 418.0247 Z" stroke="none" clip-path="url(#clipPath2)"/>
    </g>
    <g text-rendering="geometricPrecision" stroke-miterlimit="1.45" shape-rendering="geometricPrecision" transform="matrix(1,0,0,1,10,15)" stroke-linecap="butt">
      <path fill="none" d="M273.2016 384.2747 L332.2016 418.0247 L273.2016 451.7747 L214.2016 418.0247 Z" clip-path="url(#clipPath2)"/>
      <text x="239.6303" xml:space="preserve" y="422.5599" clip-path="url(#clipPath2)" font-family="sans-serif" stroke="none">Find Order?</text>
    </g>
    <g fill="url(#linearGradient8)" text-rendering="geometricPrecision" shape-rendering="geometricPrecision" transform="matrix(1,0,0,1,10,15)" stroke="url(#linearGradient8)">
      <path d="M627.6047 384.5247 L755.6047 384.5247 L755.6047 451.5247 L627.6047 451.5247 Z" stroke="none" clip-path="url(#clipPath2)"/>
    </g>
    <g text-rendering="geometricPrecision" stroke-miterlimit="1.45" shape-rendering="geometricPrecision" transform="matrix(1,0,0,1,10,15)" stroke-linecap="butt">
      <path fill="none" d="M627.6047 384.5247 L755.6047 384.5247 L755.6047 451.5247 L627.6047 451.5247 Z" clip-path="url(#clipPath2)"/>
      <text x="666.9866" xml:space="preserve" y="415.4935" clip-path="url(#clipPath2)" font-family="sans-serif" stroke="none">Route to</text>
      <text x="646.6721" xml:space="preserve" y="429.6263" clip-path="url(#clipPath2)" font-family="sans-serif" stroke="none">Track My Order</text>
    </g>
    <g fill="url(#linearGradient9)" text-rendering="geometricPrecision" shape-rendering="geometricPrecision" transform="matrix(1,0,0,1,10,15)" stroke="url(#linearGradient9)">
      <path d="M12.5 513.9529 L140.5 513.9529 L140.5 580.9529 L12.5 580.9529 Z" stroke="none" clip-path="url(#clipPath2)"/>
    </g>
    <g text-rendering="geometricPrecision" stroke-miterlimit="1.45" shape-rendering="geometricPrecision" transform="matrix(1,0,0,1,10,15)" stroke-linecap="butt">
      <path fill="none" d="M12.5 513.9529 L140.5 513.9529 L140.5 580.9529 L12.5 580.9529 Z" clip-path="url(#clipPath2)"/>
      <text x="30.6709" xml:space="preserve" y="544.9217" clip-path="url(#clipPath2)" font-family="sans-serif" stroke="none">Order Tracking </text>
      <text x="56.5781" xml:space="preserve" y="559.0545" clip-path="url(#clipPath2)" font-family="sans-serif" stroke="none">Details</text>
    </g>
    <g text-rendering="geometricPrecision" stroke-miterlimit="1.45" shape-rendering="geometricPrecision" transform="matrix(1,0,0,1,10,15)" stroke-linecap="butt">
      <path fill="none" d="M138 156.9184 L263.2016 156.9184 L267.5766 157.5434 L270.7016 159.4184 L272.5766 162.5434 L273.2016 166.9184 L273.2016 233.8281" clip-path="url(#clipPath2)"/>
    </g>
    <g text-rendering="geometricPrecision" stroke-miterlimit="1.45" shape-rendering="geometricPrecision" transform="matrix(1,0,0,1,10,15)" stroke-linecap="butt">
      <path d="M273.2016 241.8281 L278.2016 229.8281 L273.2016 232.8281 L268.2016 229.8281 Z" stroke="none" clip-path="url(#clipPath2)"/>
      <text x="150.1059" xml:space="preserve" y="150.3871" clip-path="url(#clipPath2)" font-family="sans-serif" stroke="none">No</text>
      <path fill="none" d="M71.5 192.892 L71.5 247.0906" clip-path="url(#clipPath2)"/>
      <path d="M71.5 255.0906 L76.5 243.0906 L71.5 246.0906 L66.5 243.0906 Z" clip-path="url(#clipPath2)" stroke="none"/>
      <text x="31.3604" xml:space="preserve" y="228.5426" clip-path="url(#clipPath2)" font-family="sans-serif" stroke="none">Yes</text>
      <path fill="none" d="M71.5 45.9845 L71.5 112.9245" clip-path="url(#clipPath2)"/>
      <path d="M71.5 120.9245 L76.5 108.9245 L71.5 111.9245 L66.5 108.9245 Z" clip-path="url(#clipPath2)" stroke="none"/>
      <path fill="none" d="M71.5 322.1228 L71.5 376.2624" clip-path="url(#clipPath2)"/>
      <path d="M71.5 384.2624 L76.5 372.2624 L71.5 375.2624 L66.5 372.2624 Z" clip-path="url(#clipPath2)" stroke="none"/>
      <path fill="none" d="M130.543 418.0247 L206.1669 418.0247" clip-path="url(#clipPath2)"/>
      <path d="M214.1669 418.0247 L202.1669 413.0247 L205.1669 418.0247 L202.1669 423.0247 Z" clip-path="url(#clipPath2)" stroke="none"/>
      <text x="164.2326" xml:space="preserve" y="412.4935" clip-path="url(#clipPath2)" font-family="sans-serif" stroke="none">No</text>
      <path fill="none" stroke-dasharray="6,2" d="M273.2016 384.2765 L273.2016 316.8446" clip-path="url(#clipPath2)"/>
      <path stroke-dasharray="6,2" d="M273.2016 308.8446 L268.2016 320.8446 L273.2016 317.8446 L278.2016 320.8446 Z" clip-path="url(#clipPath2)" stroke="none"/>
      <text x="252.9653" xml:space="preserve" y="351.1073" clip-path="url(#clipPath2)" font-family="sans-serif" stroke="none">No</text>
      <path fill="none" d="M332.2195 418.0247 L407.9045 418.0247" clip-path="url(#clipPath2)"/>
      <path d="M415.9045 418.0247 L403.9045 413.0247 L406.9045 418.0247 L403.9045 423.0247 Z" clip-path="url(#clipPath2)" stroke="none"/>
      <text x="363.9127" xml:space="preserve" y="411.4935" clip-path="url(#clipPath2)" font-family="sans-serif" stroke="none">Yes</text>
      <path fill="none" d="M543.915 418.0247 L619.6035 418.0247" clip-path="url(#clipPath2)"/>
      <path d="M627.6035 418.0247 L615.6035 413.0247 L618.6035 418.0247 L615.6035 423.0247 Z" clip-path="url(#clipPath2)" stroke="none"/>
      <path fill="none" d="M72.7756 451.0454 L74.8982 505.9893" clip-path="url(#clipPath2)"/>
      <path d="M75.207 513.9833 L79.7401 501.7993 L74.8596 504.9901 L69.7475 502.1853 Z" clip-path="url(#clipPath2)" stroke="none"/>
    </g>
  </g>
</svg>
